Coordinates
version=1
nRows=16
nColumns=40
inDegrees=yes

Units are S.I. units (second, meters, Newtons, ...)
If the header above contains a line with 'inDegrees', this indicates whether rotational values are in degrees (yes) or radians (no).

endheader
time	pelvis_tilt	pelvis_list	pelvis_rotation	pelvis_tx	pelvis_ty	pelvis_tz	hip_flexion_r	hip_adduction_r	hip_rotation_r	knee_angle_r	knee_angle_r_beta	ankle_angle_r	subtalar_angle_r	mtp_angle_r	hip_flexion_l	hip_adduction_l	hip_rotation_l	knee_angle_l	knee_angle_l_beta	ankle_angle_l	subtalar_angle_l	mtp_angle_l	lumbar_extension	lumbar_bending	lumbar_rotation	arm_flex_r	arm_add_r	arm_rot_r	elbow_flex_r	pro_sup_r	wrist_flex_r	wrist_dev_r	arm_flex_l	arm_add_l	arm_rot_l	elbow_flex_l	pro_sup_l	wrist_flex_l	wrist_dev_l
      0.64000000	     13.98499476	     -4.56114809	     -2.71449048	      0.95554542	      0.93118096	     -0.32269979	    -29.74465986	      3.49266538	     -2.80054190	     22.85955092	      0.39897443	     -6.63361654	      0.00000000	      0.00000000	     17.87471931	     -4.46152433	      0.32925705	     18.29392026	      0.31928914	    -19.78889139	      0.00000000	      0.00000000	    -29.55213631	      2.96577859	      7.69639405	     12.53372192	    -21.37251051	     17.10022015	     50.18364643	     72.36081282	      0.00000000	      0.00000000	      1.08927859	    -20.67224609	     18.85869869	     45.77980262	     79.63120405	      0.00000000	      0.00000000
      0.64400000	     14.01266454	     -4.52570115	     -2.90373969	      0.96212581	      0.93072652	     -0.32287271	    -29.73987335	      3.26896812	     -2.39753221	     23.52391819	      0.41056983	     -7.32257823	      0.00000000	      0.00000000	     18.03776258	     -4.48608964	      0.01460970	     19.21040900	      0.33528489	    -20.70009365	      0.00000000	      0.00000000	    -29.52081532	      2.81174472	      7.80066471	     12.43631357	    -21.24384909	     16.99997593	     49.92647839	     72.25886000	      0.00000000	      0.00000000	      1.06592616	    -20.64793948	     18.83876218	     45.63228014	     79.67234002	      0.00000000	      0.00000000
      0.64800000	     14.05077874	     -4.38901910	     -3.05860314	      0.96858342	      0.93040194	     -0.32311202	    -29.73958413	      3.00104113	     -1.80245882	     24.16306657	      0.42172507	     -7.98092703	      0.00000000	      0.00000000	     18.11036156	     -4.33401991	      0.25852457	     20.03819243	      0.34973243	    -21.03976303	      0.00000000	      0.00000000	    -29.52244401	      2.57253487	      7.81334163	     12.34291015	    -21.10154717	     16.89546783	     49.71488126	     72.21751240	      0.00000000	      0.00000000	      1.05831784	    -20.62203867	     18.81666305	     45.49589307	     79.68385367	      0.00000000	      0.00000000
      0.65200000	     14.05766002	     -4.41250675	     -3.24583589	      0.97546200	      0.92995680	     -0.32318341	    -29.73599827	      2.86480733	     -1.30921107	     24.75674016	      0.43208663	     -8.85797189	      0.00000000	      0.00000000	     18.49004890	     -4.47530819	     -0.17355347	     21.58206920	      0.37667817	    -20.53988300	      0.00000000	      0.00000000	    -29.43160008	      2.48082703	      7.92192551	     12.19754569	    -20.95760875	     16.78922918	     49.49435594	     72.14036932	      0.00000000	      0.00000000	      0.99680275	    -20.60437645	     18.83560709	     45.34415395	     79.69654001	      0.00000000	      0.00000000
      0.65600000	     14.14168308	     -4.24169786	     -3.33193790	      0.98200118	      0.92986061	     -0.32370028	    -29.74483439	      2.57148675	     -0.89452342	     25.42075571	      0.44367589	     -9.69172391	      0.00000000	      0.00000000	     18.51489478	     -4.20302790	      0.19244916	     22.43876629	      0.39163035	    -20.62582968	      0.00000000	      0.00000000	    -29.47475831	      2.25398457	      7.84762172	     12.09715825	    -20.79790718	     16.63254934	     49.23363515	     72.11065528	      0.00000000	      0.00000000	      0.99016058	    -20.56197099	     18.77768674	     45.18436738	     79.69621474	      0.00000000	      0.00000000
      0.66000000	     14.16926132	     -4.10628757	     -3.33440373	      0.98907098	      0.92963535	     -0.32407296	    -29.73167856	      2.34239095	     -0.81739633	     26.01473811	      0.45404283	    -10.82592356	      0.00000000	      0.00000000	     18.76288190	     -4.05215807	      0.20857462	     23.73419361	      0.41423982	    -20.23805968	      0.00000000	      0.00000000	    -29.36298525	      2.08742529	      7.71026379	     11.89243169	    -20.58786249	     16.48610742	     48.97057129	     72.09651047	      0.00000000	      0.00000000	      0.90833910	    -20.57549309	     18.82273106	     45.01241991	     79.71178509	      0.00000000	      0.00000000
      0.66400000	     14.23759082	     -3.91684799	     -3.37934945	      0.99575452	      0.92964772	     -0.32445747	    -29.72949961	      2.10162730	     -0.33726656	     26.64483398	      0.46504008	    -11.65656235	      0.00000000	      0.00000000	     18.75823675	     -3.77385813	      0.59859990	     24.55074603	      0.42849135	    -20.41628641	      0.00000000	      0.00000000	    -29.37726767	      1.84514199	      7.58737447	     11.74347348	    -20.40238595	     16.29993159	     48.75925805	     72.05058275	      0.00000000	      0.00000000	      0.87747118	    -20.57309756	     18.75045581	     44.86360754	     79.69990032	      0.00000000	      0.00000000
      0.66800000	     14.25076406	     -3.77888712	     -3.34943153	      1.00316119	      0.92955972	     -0.32476026	    -29.72681458	      1.89653395	     -0.31244883	     27.11527371	      0.47325080	    -13.15052235	      0.00000000	      0.00000000	     18.96882246	     -3.59982001	      0.67896388	     25.88820679	      0.45183445	    -19.80228281	      0.00000000	      0.00000000	    -29.23047162	      1.67970108	      7.44802564	     11.44079919	    -20.11588682	     16.01485837	     48.43085528	     72.11453970	      0.00000000	      0.00000000	      0.77907727	    -20.57793259	     18.73792192	     44.67969568	     79.71929731	      0.00000000	      0.00000000
      0.67200000	     14.37969571	     -3.58825352	     -3.18146613	      1.00988744	      0.92978561	     -0.32550325	    -29.72463250	      1.69085856	     -0.34065765	     27.74650465	      0.48426786	    -14.50593716	      0.00000000	      0.00000000	     18.95794405	     -3.23488791	      1.11585486	     26.86148010	      0.46882127	    -19.64530364	      0.00000000	      0.00000000	    -29.30312690	      1.53089815	      7.14134810	     11.18099725	    -19.92523978	     15.68185385	     48.35794289	     72.11398111	      0.00000000	      0.00000000	      0.74814329	    -20.59652833	     18.69529079	     44.58841787	     79.71771356	      0.00000000	      0.00000000
      0.67600000	     14.45924709	     -3.31729254	     -3.01766937	      1.01694577	      0.93008363	     -0.32621544	    -29.72664308	      1.43116662	     -0.31138218	     28.29668072	      0.49387025	    -15.74502654	      0.00000000	      0.00000000	     18.90274058	     -2.76022836	      1.54863085	     27.71696711	      0.48375233	    -19.40654165	      0.00000000	      0.00000000	    -29.28226662	      1.31499698	      6.81513751	     10.96533191	    -19.68865785	     15.43666225	     48.07688101	     72.12033174	      0.00000000	      0.00000000	      0.70543289	    -20.60141324	     18.68747687	     44.40483589	     79.72070081	      0.00000000	      0.00000000
      0.68000000	     14.48774595	     -3.04284121	     -2.70309434	      1.02442973	      0.93028928	     -0.32707785	    -29.72235792	      1.18633917	     -0.76083696	     28.70745312	      0.50103958	    -17.58353585	      0.00000000	      0.00000000	     18.90490290	     -2.22244642	      2.06349980	     28.66224389	      0.50025053	    -18.60205689	      0.00000000	      0.00000000	    -29.14146560	      1.16088305	      6.34406578	     10.61002520	    -19.41695774	     15.16901813	     47.84136641	     72.33406913	      0.00000000	      0.00000000	      0.57090162	    -20.61454792	     18.62683576	     44.25026846	     79.75363563	      0.00000000	      0.00000000
      0.68400000	     14.61235678	     -2.76159382	     -2.55884623	      1.03165468	      0.93076273	     -0.32799959	    -29.71630307	      0.83730717	     -1.05867787	     29.27633060	      0.51096836	    -19.21264095	      0.00000000	      0.00000000	     18.68238843	     -1.72181913	      2.35839022	     29.35539861	      0.51234836	    -18.16166107	      0.00000000	      0.00000000	    -29.14519184	      0.94706980	      6.02076982	     10.32938935	    -19.20050545	     14.90120419	     47.58369282	     72.40149180	      0.00000000	      0.00000000	      0.50639958	    -20.59021831	     18.58775415	     44.06907030	     79.74079710	      0.00000000	      0.00000000
      0.68800000	     14.73369943	     -2.54777568	     -2.38506493	      1.03887020	      0.93127956	     -0.32847726	    -29.70835734	      0.61049302	     -1.27655447	     29.80331671	      0.52016600	    -20.94291556	      0.00000000	      0.00000000	     18.41758386	     -1.27691271	      2.85600668	     29.97540914	      0.52316958	    -17.67295148	      0.00000000	      0.00000000	    -29.15587701	      0.75934101	      5.71366555	     10.01376752	    -18.96189022	     14.61106400	     47.39643563	     72.42554097	      0.00000000	      0.00000000	      0.41102785	    -20.68094111	     18.61058450	     44.05994010	     79.74756855	      0.00000000	      0.00000000
      0.69200000	     14.83410735	     -2.25323390	     -2.16821623	      1.04622813	      0.93185736	     -0.32922101	    -29.70774617	      0.30532682	     -1.63319921	     30.25615923	      0.52806960	    -22.67430881	      0.00000000	      0.00000000	     18.13378779	     -0.74697956	      3.23416012	     30.52132709	      0.53269765	    -17.22570817	      0.00000000	      0.00000000	    -29.12361100	      0.54248722	      5.33324687	      9.62546111	    -18.72489247	     14.26983281	     47.31052222	     72.45774547	      0.00000000	      0.00000000	      0.33322211	    -20.71135451	     18.59623907	     43.91361566	     79.73239707	      0.00000000	      0.00000000
      0.69600000	     14.97844398	     -2.02048292	     -2.03247230	      1.05355572	      0.93257543	     -0.32978223	    -29.69799517	      0.03448442	     -1.83599253	     30.81682325	      0.53785503	    -24.27632338	      0.00000000	      0.00000000	     17.76725793	     -0.34723530	      3.43327080	     31.03702516	      0.54169828	    -16.73545938	      0.00000000	      0.00000000	    -29.14240762	      0.33667288	      5.04167448	      9.29921240	    -18.48423635	     13.95273408	     47.11317061	     72.39545854	      0.00000000	      0.00000000	      0.25385207	    -20.74739361	     18.54528481	     43.78594694	     79.73735060	      0.00000000	      0.00000000
      0.70000000	     15.11455577	     -1.79661038	     -1.77804760	      1.06079975	      0.93327148	     -0.33017065	    -29.68979871	     -0.14161318	     -2.10286191	     31.32335710	      0.54669571	    -25.89978102	      0.00000000	      0.00000000	     17.41448105	      0.03556132	      3.70637244	     31.55636065	      0.55076239	    -16.14291205	      0.00000000	      0.00000000	    -29.15579603	      0.16780865	      4.67119968	      8.94177869	    -18.20559299	     13.65611363	     46.93172936	     72.40919298	      0.00000000	      0.00000000	      0.18263879	    -20.90069080	     18.66755546	     43.78942719	     79.74645541	      0.00000000	      0.00000000
